<svg xmlns="http://www.w3.org/2000/svg" xmlns:xlink="http://www.w3.org/1999/xlink" viewBox="0 0 682.76 178.01"><defs><style>.cls-1{fill:url(#Gradiente_sem_nome_6);}.cls-2{fill:url(#Gradiente_sem_nome_6-2);}.cls-3{fill:url(#Gradiente_sem_nome_6-3);}.cls-4{fill:url(#Gradiente_sem_nome_6-4);}.cls-5{fill:url(#Gradiente_sem_nome_6-5);}.cls-6{fill:url(#Gradiente_sem_nome_6-6);}.cls-7{fill:url(#Gradiente_sem_nome_6-7);}.cls-8,.cls-9{fill:none;}.cls-8{stroke:#4d4d4d;stroke-width:6.76px;}.cls-9{stroke:#f2f2f2;stroke-width:4.51px;}</style><linearGradient id="Gradiente_sem_nome_6" x1="73.61" y1="176.15" x2="81.49" y2="43.23" gradientUnits="userSpaceOnUse"><stop offset="0" stop-color="#1480c4"/><stop offset="0.51" stop-color="#0090d8"/><stop offset="1" stop-color="#00b1f7"/></linearGradient><linearGradient id="Gradiente_sem_nome_6-2" x1="199.81" y1="183.63" x2="207.69" y2="50.71" xlink:href="#Gradiente_sem_nome_6"/><linearGradient id="Gradiente_sem_nome_6-3" x1="289.65" y1="188.96" x2="297.53" y2="56.04" xlink:href="#Gradiente_sem_nome_6"/><linearGradient id="Gradiente_sem_nome_6-4" x1="354.48" y1="192.81" x2="362.37" y2="59.89" xlink:href="#Gradiente_sem_nome_6"/><linearGradient id="Gradiente_sem_nome_6-5" x1="399.23" y1="195.46" x2="407.12" y2="62.54" xlink:href="#Gradiente_sem_nome_6"/><linearGradient id="Gradiente_sem_nome_6-6" x1="502.07" y1="201.57" x2="509.96" y2="68.64" xlink:href="#Gradiente_sem_nome_6"/><linearGradient id="Gradiente_sem_nome_6-7" x1="627.87" y1="209.03" x2="635.75" y2="76.11" xlink:href="#Gradiente_sem_nome_6"/></defs><g id="Camada_2" data-name="Camada 2"><g id="Camada_1-2" data-name="Camada 1"><path class="cls-1" d="M143.13,59.65q6.5,8,6.5,22.63a76.24,76.24,0,0,1-.7,10L139.42,170a3.79,3.79,0,0,1-1,2,2.65,2.65,0,0,1-2,.81H110a2.3,2.3,0,0,1-1.86-.81,2.19,2.19,0,0,1-.46-2l9.28-75.65a19.65,19.65,0,0,0,.23-3.48c0-3.56-.73-6.3-2.2-8.24a7.31,7.31,0,0,0-6.15-2.9,10.21,10.21,0,0,0-8.12,3.83q-3.26,3.83-4.18,10.79L87.21,170a3.79,3.79,0,0,1-1,2,2.65,2.65,0,0,1-2,.81H58a2.3,2.3,0,0,1-1.86-.81,2.19,2.19,0,0,1-.46-2l9.28-75.65a19.65,19.65,0,0,0,.23-3.48c0-3.56-.73-6.3-2.2-8.24a7.29,7.29,0,0,0-6.15-2.9,10.21,10.21,0,0,0-8.12,3.83q-3.25,3.83-4.18,10.79L35.23,170a3.85,3.85,0,0,1-1,2,2.69,2.69,0,0,1-2,.81H5.76A2.3,2.3,0,0,1,3.9,172a2.19,2.19,0,0,1-.46-2L17.36,56.29a3.72,3.72,0,0,1,1.05-2,2.67,2.67,0,0,1,2-.81H46.83a2.35,2.35,0,0,1,1.86.81,2.25,2.25,0,0,1,.46,2l-.46,3c0,1.09.46,1.32,1.39.7a30.16,30.16,0,0,1,10.67-6.5A33.41,33.41,0,0,1,71.2,51.64q17.63,0,23.66,14.39c0,.16.16.23.47.23s.85-.46,1.62-1.39q5.58-7.43,12.65-10.32a36.18,36.18,0,0,1,13.81-2.91Q136.64,51.64,143.13,59.65Z"/><path class="cls-2" d="M168.08,165.81Q158,157,158,141.45a57.21,57.21,0,0,1,.23-5.8l5.57-45q2.08-17.64,15-28.31t32.6-10.68q18.33,0,28.54,8.94T250.1,84.83a49.48,49.48,0,0,1-.46,5.8l-5.57,45q-2.32,18.09-15,28.54t-32.83,10.44Q178.16,174.63,168.08,165.81Zm40.14-23.2a16,16,0,0,0,4.29-9.52L217.62,93q.69-5.81-2.09-9.51a9,9,0,0,0-7.66-3.72,11,11,0,0,0-8.35,3.72A16.34,16.34,0,0,0,195.34,93l-5.1,40.14q-.7,5.81,2,9.52a8.74,8.74,0,0,0,7.54,3.71A11.43,11.43,0,0,0,208.22,142.61Z"/><path class="cls-3" d="M314.2,164q-10.47,8.82-25.69,8.82H256.85a1.72,1.72,0,0,1-1.38-.6,1.65,1.65,0,0,1-.35-1.47L269.48,53.75a2.77,2.77,0,0,1,.78-1.47,2,2,0,0,1,1.47-.61h28q15.23,0,23.61,6.84t8.39,20.32q0,1.74-.34,5.89-2.09,16.95-14.54,24.91c-.46.34-.52.69-.17,1q10,8,10,22.66c0,1-.11,2.83-.34,5.36Q324.66,155.13,314.2,164Zm-15.65-16.43q3.63-4.16,4.67-11.77a29,29,0,0,0,.17-3.63q0-6.06-2.6-9.52a8.56,8.56,0,0,0-7.26-3.46h-7.61c-.46,0-.81.29-1,.87l-3.63,30.79c-.24.58,0,.87.69.87h7.44A11.7,11.7,0,0,0,298.55,147.52Zm-7.79-74.05-3.46,27.16q0,.87.69.87h6.06a12.44,12.44,0,0,0,10.29-4.67q3.72-4.68,3.72-13,0-5.53-2.68-8.39c-1.79-1.9-4.35-2.85-7.7-2.85h-6.05A.77.77,0,0,0,290.76,73.47Z"/><path class="cls-4" d="M335,172a2.19,2.19,0,0,1-.46-2l13.92-113.7a3.72,3.72,0,0,1,1-2,2.67,2.67,0,0,1,2-.81H378a2.35,2.35,0,0,1,1.86.81,2.25,2.25,0,0,1,.46,2L366.35,170a3.78,3.78,0,0,1-1,2,2.69,2.69,0,0,1-2,.81H336.88A2.3,2.3,0,0,1,335,172ZM354.75,35.63a15.07,15.07,0,0,1-4.41-11.13q0-9.29,5.8-15.2a19.32,19.32,0,0,1,14.39-5.92q7.19,0,11.37,4.18t4.17,11.13a21.2,21.2,0,0,1-5.91,15.09,18.71,18.71,0,0,1-14,6.26A15.37,15.37,0,0,1,354.75,35.63Z"/><path class="cls-5" d="M387.93,169.18a15.8,15.8,0,0,1-4.41-11.49A20,20,0,0,1,389.44,143a19.68,19.68,0,0,1,14.5-5.92q7.19,0,11.49,4.29t4.29,11.49a20.18,20.18,0,0,1-6,14.85,19.66,19.66,0,0,1-14.39,6A15.19,15.19,0,0,1,387.93,169.18Z"/><path class="cls-6" d="M573.1,59.65q6.49,8,6.5,22.63a76.24,76.24,0,0,1-.7,10L569.39,170a3.79,3.79,0,0,1-1,2,2.65,2.65,0,0,1-2,.81H539.92a2.3,2.3,0,0,1-1.86-.81,2.19,2.19,0,0,1-.46-2l9.28-75.65a19.65,19.65,0,0,0,.23-3.48c0-3.56-.73-6.3-2.2-8.24a7.29,7.29,0,0,0-6.15-2.9,10.21,10.21,0,0,0-8.12,3.83q-3.25,3.83-4.18,10.79L517.18,170a3.79,3.79,0,0,1-1,2,2.65,2.65,0,0,1-2,.81H487.94a2.3,2.3,0,0,1-1.86-.81,2.19,2.19,0,0,1-.46-2l9.28-75.65a19.65,19.65,0,0,0,.23-3.48c0-3.56-.73-6.3-2.2-8.24a7.29,7.29,0,0,0-6.15-2.9,10.21,10.21,0,0,0-8.12,3.83q-3.26,3.83-4.18,10.79L465.2,170a3.85,3.85,0,0,1-1,2,2.69,2.69,0,0,1-2,.81H435.73a2.3,2.3,0,0,1-1.86-.81,2.19,2.19,0,0,1-.46-2l13.92-113.7a3.77,3.77,0,0,1,1-2,2.71,2.71,0,0,1,2-.81H476.8a2.35,2.35,0,0,1,1.86.81,2.25,2.25,0,0,1,.46,2l-.46,3c0,1.09.46,1.32,1.39.7a30.16,30.16,0,0,1,10.67-6.5,33.41,33.41,0,0,1,10.45-1.86q17.62,0,23.66,14.39c0,.16.16.23.47.23s.85-.46,1.62-1.39q5.58-7.43,12.65-10.32a36.18,36.18,0,0,1,13.81-2.91Q566.6,51.64,573.1,59.65Z"/><path class="cls-7" d="M674.16,122.54a2.7,2.7,0,0,1-2,.81H622.53a1.18,1.18,0,0,0-1.16,1.16l-1.16,8.58q-.71,5.81,2,9.63a8.41,8.41,0,0,0,7.31,3.83,10.4,10.4,0,0,0,7.31-2.9,16.5,16.5,0,0,0,4.52-7.31,3.3,3.3,0,0,1,3.25-2.32l25.76,1.39a2,2,0,0,1,1.74.82,2.91,2.91,0,0,1,.35,2.2q-3.72,17.88-15.32,27T626,174.63q-18.33,0-28.31-8.58t-10-24.14a61.6,61.6,0,0,1,.46-6.26l5.57-45Q595.84,73,608.6,62.32t32.49-10.68q18.1,0,28.2,8.94t10.09,24.25c0,1.08-.16,3-.46,5.8l-3.72,29.93A3.73,3.73,0,0,1,674.16,122.54Zm-44.67-39.1A16.34,16.34,0,0,0,625.31,93l-1.16,9c0,.77.31,1.16.93,1.16h19.49a1.2,1.2,0,0,0,1.16-1.16l1.16-9q.71-5.81-2-9.51a8.52,8.52,0,0,0-7.31-3.72A10.79,10.79,0,0,0,629.49,83.44Z"/><path class="cls-8" d="M143.13,59.65q6.5,8,6.5,22.63a76.24,76.24,0,0,1-.7,10L139.42,170a3.79,3.79,0,0,1-1,2,2.65,2.65,0,0,1-2,.81H110a2.3,2.3,0,0,1-1.86-.81,2.19,2.19,0,0,1-.46-2l9.28-75.65a19.65,19.65,0,0,0,.23-3.48c0-3.56-.73-6.3-2.2-8.24a7.31,7.31,0,0,0-6.15-2.9,10.21,10.21,0,0,0-8.12,3.83q-3.26,3.83-4.18,10.79L87.21,170a3.79,3.79,0,0,1-1,2,2.65,2.65,0,0,1-2,.81H58a2.3,2.3,0,0,1-1.86-.81,2.19,2.19,0,0,1-.46-2l9.28-75.65a19.65,19.65,0,0,0,.23-3.48c0-3.56-.73-6.3-2.2-8.24a7.29,7.29,0,0,0-6.15-2.9,10.21,10.21,0,0,0-8.12,3.83q-3.25,3.83-4.18,10.79L35.23,170a3.85,3.85,0,0,1-1,2,2.69,2.69,0,0,1-2,.81H5.76A2.3,2.3,0,0,1,3.9,172a2.19,2.19,0,0,1-.46-2L17.36,56.29a3.72,3.72,0,0,1,1.05-2,2.67,2.67,0,0,1,2-.81H46.83a2.35,2.35,0,0,1,1.86.81,2.25,2.25,0,0,1,.46,2l-.46,3c0,1.09.46,1.32,1.39.7a30.16,30.16,0,0,1,10.67-6.5A33.41,33.41,0,0,1,71.2,51.64q17.63,0,23.66,14.39c0,.16.16.23.47.23s.85-.46,1.62-1.39q5.58-7.43,12.65-10.32a36.18,36.18,0,0,1,13.81-2.91Q136.64,51.64,143.13,59.65Z"/><path class="cls-8" d="M168.08,165.81Q158,157,158,141.45a57.21,57.21,0,0,1,.23-5.8l5.57-45q2.08-17.64,15-28.31t32.6-10.68q18.33,0,28.54,8.94T250.1,84.83a49.48,49.48,0,0,1-.46,5.8l-5.57,45q-2.32,18.09-15,28.54t-32.83,10.44Q178.16,174.63,168.08,165.81Zm40.14-23.2a16,16,0,0,0,4.29-9.52L217.62,93q.69-5.81-2.09-9.51a9,9,0,0,0-7.66-3.72,11,11,0,0,0-8.35,3.72A16.34,16.34,0,0,0,195.34,93l-5.1,40.14q-.7,5.81,2,9.52a8.74,8.74,0,0,0,7.54,3.71A11.43,11.43,0,0,0,208.22,142.61Z"/><path class="cls-8" d="M314.2,164q-10.47,8.82-25.69,8.82H256.85a1.72,1.72,0,0,1-1.38-.6,1.65,1.65,0,0,1-.35-1.47L269.48,53.75a2.77,2.77,0,0,1,.78-1.47,2,2,0,0,1,1.47-.61h28q15.23,0,23.61,6.84t8.39,20.32q0,1.74-.34,5.89-2.09,16.95-14.54,24.91c-.46.34-.52.69-.17,1q10,8,10,22.66c0,1-.11,2.83-.34,5.36Q324.66,155.13,314.2,164Zm-15.65-16.43q3.63-4.16,4.67-11.77a29,29,0,0,0,.17-3.63q0-6.06-2.6-9.52a8.56,8.56,0,0,0-7.26-3.46h-7.61c-.46,0-.81.29-1,.87l-3.63,30.79c-.24.58,0,.87.69.87h7.44A11.7,11.7,0,0,0,298.55,147.52Zm-7.79-74.05-3.46,27.16q0,.87.69.87h6.06a12.44,12.44,0,0,0,10.29-4.67q3.72-4.68,3.72-13,0-5.53-2.68-8.39c-1.79-1.9-4.35-2.85-7.7-2.85h-6.05A.77.77,0,0,0,290.76,73.47Z"/><path class="cls-8" d="M335,172a2.19,2.19,0,0,1-.46-2l13.92-113.7a3.72,3.72,0,0,1,1-2,2.67,2.67,0,0,1,2-.81H378a2.35,2.35,0,0,1,1.86.81,2.25,2.25,0,0,1,.46,2L366.35,170a3.78,3.78,0,0,1-1,2,2.69,2.69,0,0,1-2,.81H336.88A2.3,2.3,0,0,1,335,172ZM354.75,35.63a15.07,15.07,0,0,1-4.41-11.13q0-9.29,5.8-15.2a19.32,19.32,0,0,1,14.39-5.92q7.19,0,11.37,4.18t4.17,11.13a21.2,21.2,0,0,1-5.91,15.09,18.71,18.71,0,0,1-14,6.26A15.37,15.37,0,0,1,354.75,35.63Z"/><path class="cls-8" d="M387.93,169.18a15.8,15.8,0,0,1-4.41-11.49A20,20,0,0,1,389.44,143a19.68,19.68,0,0,1,14.5-5.92q7.19,0,11.49,4.29t4.29,11.49a20.18,20.18,0,0,1-6,14.85,19.66,19.66,0,0,1-14.39,6A15.19,15.19,0,0,1,387.93,169.18Z"/><path class="cls-8" d="M573.1,59.65q6.49,8,6.5,22.63a76.24,76.24,0,0,1-.7,10L569.39,170a3.79,3.79,0,0,1-1,2,2.65,2.65,0,0,1-2,.81H539.92a2.3,2.3,0,0,1-1.86-.81,2.19,2.19,0,0,1-.46-2l9.28-75.65a19.65,19.65,0,0,0,.23-3.48c0-3.56-.73-6.3-2.2-8.24a7.29,7.29,0,0,0-6.15-2.9,10.21,10.21,0,0,0-8.12,3.83q-3.25,3.83-4.18,10.79L517.18,170a3.79,3.79,0,0,1-1,2,2.65,2.65,0,0,1-2,.81H487.94a2.3,2.3,0,0,1-1.86-.81,2.19,2.19,0,0,1-.46-2l9.28-75.65a19.65,19.65,0,0,0,.23-3.48c0-3.56-.73-6.3-2.2-8.24a7.29,7.29,0,0,0-6.15-2.9,10.21,10.21,0,0,0-8.12,3.83q-3.26,3.83-4.18,10.79L465.2,170a3.85,3.85,0,0,1-1,2,2.69,2.69,0,0,1-2,.81H435.73a2.3,2.3,0,0,1-1.86-.81,2.19,2.19,0,0,1-.46-2l13.92-113.7a3.77,3.77,0,0,1,1-2,2.71,2.71,0,0,1,2-.81H476.8a2.35,2.35,0,0,1,1.86.81,2.25,2.25,0,0,1,.46,2l-.46,3c0,1.09.46,1.32,1.39.7a30.16,30.16,0,0,1,10.67-6.5,33.41,33.41,0,0,1,10.45-1.86q17.62,0,23.66,14.39c0,.16.16.23.47.23s.85-.46,1.62-1.39q5.58-7.43,12.65-10.32a36.18,36.18,0,0,1,13.81-2.91Q566.6,51.64,573.1,59.65Z"/><path class="cls-8" d="M674.16,122.54a2.7,2.7,0,0,1-2,.81H622.53a1.18,1.18,0,0,0-1.16,1.16l-1.16,8.58q-.71,5.81,2,9.63a8.41,8.41,0,0,0,7.31,3.83,10.4,10.4,0,0,0,7.31-2.9,16.5,16.5,0,0,0,4.52-7.31,3.3,3.3,0,0,1,3.25-2.32l25.76,1.39a2,2,0,0,1,1.74.82,2.91,2.91,0,0,1,.35,2.2q-3.72,17.88-15.32,27T626,174.63q-18.33,0-28.31-8.58t-10-24.14a61.6,61.6,0,0,1,.46-6.26l5.57-45Q595.84,73,608.6,62.32t32.49-10.68q18.1,0,28.2,8.94t10.09,24.25c0,1.08-.16,3-.46,5.8l-3.72,29.93A3.73,3.73,0,0,1,674.16,122.54Zm-44.67-39.1A16.34,16.34,0,0,0,625.31,93l-1.16,9c0,.77.31,1.16.93,1.16h19.49a1.2,1.2,0,0,0,1.16-1.16l1.16-9q.71-5.81-2-9.51a8.52,8.52,0,0,0-7.31-3.72A10.79,10.79,0,0,0,629.49,83.44Z"/><path class="cls-9" d="M143.13,59.65q6.5,8,6.5,22.63a76.24,76.24,0,0,1-.7,10L139.42,170a3.79,3.79,0,0,1-1,2,2.65,2.65,0,0,1-2,.81H110a2.3,2.3,0,0,1-1.86-.81,2.19,2.19,0,0,1-.46-2l9.28-75.65a19.65,19.65,0,0,0,.23-3.48c0-3.56-.73-6.3-2.2-8.24a7.31,7.31,0,0,0-6.15-2.9,10.21,10.21,0,0,0-8.12,3.83q-3.26,3.83-4.18,10.79L87.21,170a3.79,3.79,0,0,1-1,2,2.65,2.65,0,0,1-2,.81H58a2.3,2.3,0,0,1-1.86-.81,2.19,2.19,0,0,1-.46-2l9.28-75.65a19.65,19.65,0,0,0,.23-3.48c0-3.56-.73-6.3-2.2-8.24a7.29,7.29,0,0,0-6.15-2.9,10.21,10.21,0,0,0-8.12,3.83q-3.25,3.83-4.18,10.79L35.23,170a3.85,3.85,0,0,1-1,2,2.69,2.69,0,0,1-2,.81H5.76A2.3,2.3,0,0,1,3.9,172a2.19,2.19,0,0,1-.46-2L17.36,56.29a3.72,3.72,0,0,1,1.05-2,2.67,2.67,0,0,1,2-.81H46.83a2.35,2.35,0,0,1,1.86.81,2.25,2.25,0,0,1,.46,2l-.46,3c0,1.09.46,1.32,1.39.7a30.16,30.16,0,0,1,10.67-6.5A33.41,33.41,0,0,1,71.2,51.64q17.63,0,23.66,14.39c0,.16.16.23.47.23s.85-.46,1.62-1.39q5.58-7.43,12.65-10.32a36.18,36.18,0,0,1,13.81-2.91Q136.64,51.64,143.13,59.65Z"/><path class="cls-9" d="M168.08,165.81Q158,157,158,141.45a57.21,57.21,0,0,1,.23-5.8l5.57-45q2.08-17.64,15-28.31t32.6-10.68q18.33,0,28.54,8.94T250.1,84.83a49.48,49.48,0,0,1-.46,5.8l-5.57,45q-2.32,18.09-15,28.54t-32.83,10.44Q178.16,174.63,168.08,165.81Zm40.14-23.2a16,16,0,0,0,4.29-9.52L217.62,93q.69-5.81-2.09-9.51a9,9,0,0,0-7.66-3.72,11,11,0,0,0-8.35,3.72A16.34,16.34,0,0,0,195.34,93l-5.1,40.14q-.7,5.81,2,9.52a8.74,8.74,0,0,0,7.54,3.71A11.43,11.43,0,0,0,208.22,142.61Z"/><path class="cls-9" d="M314.2,164q-10.47,8.82-25.69,8.82H256.85a1.72,1.72,0,0,1-1.38-.6,1.65,1.65,0,0,1-.35-1.47L269.48,53.75a2.77,2.77,0,0,1,.78-1.47,2,2,0,0,1,1.47-.61h28q15.23,0,23.61,6.84t8.39,20.32q0,1.74-.34,5.89-2.09,16.95-14.54,24.91c-.46.34-.52.69-.17,1q10,8,10,22.66c0,1-.11,2.83-.34,5.36Q324.66,155.13,314.2,164Zm-15.65-16.43q3.63-4.16,4.67-11.77a29,29,0,0,0,.17-3.63q0-6.06-2.6-9.52a8.56,8.56,0,0,0-7.26-3.46h-7.61c-.46,0-.81.29-1,.87l-3.63,30.79c-.24.58,0,.87.69.87h7.44A11.7,11.7,0,0,0,298.55,147.52Zm-7.79-74.05-3.46,27.16q0,.87.69.87h6.06a12.44,12.44,0,0,0,10.29-4.67q3.72-4.68,3.72-13,0-5.53-2.68-8.39c-1.79-1.9-4.35-2.85-7.7-2.85h-6.05A.77.77,0,0,0,290.76,73.47Z"/><path class="cls-9" d="M335,172a2.19,2.19,0,0,1-.46-2l13.92-113.7a3.72,3.72,0,0,1,1-2,2.67,2.67,0,0,1,2-.81H378a2.35,2.35,0,0,1,1.86.81,2.25,2.25,0,0,1,.46,2L366.35,170a3.78,3.78,0,0,1-1,2,2.69,2.69,0,0,1-2,.81H336.88A2.3,2.3,0,0,1,335,172ZM354.75,35.63a15.07,15.07,0,0,1-4.41-11.13q0-9.29,5.8-15.2a19.32,19.32,0,0,1,14.39-5.92q7.19,0,11.37,4.18t4.17,11.13a21.2,21.2,0,0,1-5.91,15.09,18.71,18.71,0,0,1-14,6.26A15.37,15.37,0,0,1,354.75,35.63Z"/><path class="cls-9" d="M387.93,169.18a15.8,15.8,0,0,1-4.41-11.49A20,20,0,0,1,389.44,143a19.68,19.68,0,0,1,14.5-5.92q7.19,0,11.49,4.29t4.29,11.49a20.18,20.18,0,0,1-6,14.85,19.66,19.66,0,0,1-14.39,6A15.19,15.19,0,0,1,387.93,169.18Z"/><path class="cls-9" d="M573.1,59.65q6.49,8,6.5,22.63a76.24,76.24,0,0,1-.7,10L569.39,170a3.79,3.79,0,0,1-1,2,2.65,2.65,0,0,1-2,.81H539.92a2.3,2.3,0,0,1-1.86-.81,2.19,2.19,0,0,1-.46-2l9.28-75.65a19.65,19.65,0,0,0,.23-3.48c0-3.56-.73-6.3-2.2-8.24a7.29,7.29,0,0,0-6.15-2.9,10.21,10.21,0,0,0-8.12,3.83q-3.25,3.83-4.18,10.79L517.18,170a3.79,3.79,0,0,1-1,2,2.65,2.65,0,0,1-2,.81H487.94a2.3,2.3,0,0,1-1.86-.81,2.19,2.19,0,0,1-.46-2l9.28-75.65a19.65,19.65,0,0,0,.23-3.48c0-3.56-.73-6.3-2.2-8.24a7.29,7.29,0,0,0-6.15-2.9,10.21,10.21,0,0,0-8.12,3.83q-3.26,3.83-4.18,10.79L465.2,170a3.85,3.85,0,0,1-1,2,2.69,2.69,0,0,1-2,.81H435.73a2.3,2.3,0,0,1-1.86-.81,2.19,2.19,0,0,1-.46-2l13.92-113.7a3.77,3.77,0,0,1,1-2,2.71,2.71,0,0,1,2-.81H476.8a2.35,2.35,0,0,1,1.86.81,2.25,2.25,0,0,1,.46,2l-.46,3c0,1.09.46,1.32,1.39.7a30.16,30.16,0,0,1,10.67-6.5,33.41,33.41,0,0,1,10.45-1.86q17.62,0,23.66,14.39c0,.16.16.23.47.23s.85-.46,1.62-1.39q5.58-7.43,12.65-10.32a36.18,36.18,0,0,1,13.81-2.91Q566.6,51.64,573.1,59.65Z"/><path class="cls-9" d="M674.16,122.54a2.7,2.7,0,0,1-2,.81H622.53a1.18,1.18,0,0,0-1.16,1.16l-1.16,8.58q-.71,5.81,2,9.63a8.41,8.41,0,0,0,7.31,3.83,10.4,10.4,0,0,0,7.31-2.9,16.5,16.5,0,0,0,4.52-7.31,3.3,3.3,0,0,1,3.25-2.32l25.76,1.39a2,2,0,0,1,1.74.82,2.91,2.91,0,0,1,.35,2.2q-3.72,17.88-15.32,27T626,174.63q-18.33,0-28.31-8.58t-10-24.14a61.6,61.6,0,0,1,.46-6.26l5.57-45Q595.84,73,608.6,62.32t32.49-10.68q18.1,0,28.2,8.94t10.09,24.25c0,1.08-.16,3-.46,5.8l-3.72,29.93A3.73,3.73,0,0,1,674.16,122.54Zm-44.67-39.1A16.34,16.34,0,0,0,625.31,93l-1.16,9c0,.77.31,1.16.93,1.16h19.49a1.2,1.2,0,0,0,1.16-1.16l1.16-9q.71-5.81-2-9.51a8.52,8.52,0,0,0-7.31-3.72A10.79,10.79,0,0,0,629.49,83.44Z"/></g></g></svg>